<mxfile host="app.diagrams.net" modified="2021-07-22T08:39:35.706Z" agent="5.0 (Windows NT 10.0; Win64; x64) AppleWebKit/537.36 (KHTML, like Gecko) Chrome/91.0.4472.164 Safari/537.36" etag="fDBnf-N66UP4DOF9rM7t" version="14.9.1" type="github">
  <diagram id="vk8LogrxXEUSK_-m6440" name="第 1 页">
    <mxGraphModel dx="1808" dy="548" grid="0" gridSize="10" guides="1" tooltips="1" connect="1" arrows="1" fold="1" page="1" pageScale="1" pageWidth="827" pageHeight="1169" background="none" math="0" shadow="0">
      <root>
        <mxCell id="0" />
        <mxCell id="1" parent="0" />
        <mxCell id="enesHElCpC1ox6ckIHe5-9" style="rounded=0;orthogonalLoop=1;jettySize=auto;html=1;entryX=0;entryY=0.5;entryDx=0;entryDy=0;exitX=1;exitY=0.5;exitDx=0;exitDy=0;labelBackgroundColor=#DAD2D8;strokeColor=#A8201A;fontColor=#143642;" edge="1" parent="1" source="enesHElCpC1ox6ckIHe5-1" target="enesHElCpC1ox6ckIHe5-8">
          <mxGeometry relative="1" as="geometry" />
        </mxCell>
        <mxCell id="enesHElCpC1ox6ckIHe5-10" style="edgeStyle=none;rounded=0;orthogonalLoop=1;jettySize=auto;html=1;exitX=1;exitY=0.5;exitDx=0;exitDy=0;entryX=0;entryY=0.5;entryDx=0;entryDy=0;labelBackgroundColor=#DAD2D8;strokeColor=#A8201A;fontColor=#143642;" edge="1" parent="1" source="enesHElCpC1ox6ckIHe5-1" target="enesHElCpC1ox6ckIHe5-2">
          <mxGeometry relative="1" as="geometry" />
        </mxCell>
        <mxCell id="enesHElCpC1ox6ckIHe5-11" style="edgeStyle=none;rounded=0;orthogonalLoop=1;jettySize=auto;html=1;exitX=1;exitY=0.5;exitDx=0;exitDy=0;entryX=0;entryY=0.5;entryDx=0;entryDy=0;labelBackgroundColor=#DAD2D8;strokeColor=#A8201A;fontColor=#143642;" edge="1" parent="1" source="enesHElCpC1ox6ckIHe5-1" target="enesHElCpC1ox6ckIHe5-7">
          <mxGeometry relative="1" as="geometry" />
        </mxCell>
        <mxCell id="enesHElCpC1ox6ckIHe5-1" value="&lt;font face=&quot;Times New Roman&quot;&gt;Main Product&lt;br&gt;&lt;font style=&quot;font-size: 11px&quot;&gt;主产品&lt;/font&gt;&lt;br&gt;&lt;/font&gt;" style="rounded=1;arcSize=10;whiteSpace=wrap;html=1;align=center;gradientDirection=north;shadow=1;glass=0;sketch=0;fillColor=#FAE5C7;strokeColor=#0F8B8D;fontColor=#143642;" vertex="1" parent="1">
          <mxGeometry x="-820" y="270" width="100" height="40" as="geometry" />
        </mxCell>
        <mxCell id="enesHElCpC1ox6ckIHe5-18" style="edgeStyle=orthogonalEdgeStyle;curved=0;rounded=1;sketch=0;orthogonalLoop=1;jettySize=auto;html=1;fontColor=#143642;strokeColor=#A8201A;fillColor=#FAE5C7;" edge="1" parent="1" source="enesHElCpC1ox6ckIHe5-2" target="enesHElCpC1ox6ckIHe5-17">
          <mxGeometry relative="1" as="geometry" />
        </mxCell>
        <mxCell id="enesHElCpC1ox6ckIHe5-2" value="&lt;font face=&quot;Times New Roman&quot;&gt;Subscription plan 2&lt;/font&gt;" style="rounded=1;arcSize=10;whiteSpace=wrap;html=1;align=center;glass=0;sketch=0;shadow=1;fillColor=#FAE5C7;strokeColor=#0F8B8D;fontColor=#143642;" vertex="1" parent="1">
          <mxGeometry x="-660" y="270" width="100" height="40" as="geometry" />
        </mxCell>
        <mxCell id="enesHElCpC1ox6ckIHe5-7" value="&lt;font face=&quot;Times New Roman&quot;&gt;Subscription plan 3&lt;/font&gt;" style="rounded=1;arcSize=10;whiteSpace=wrap;html=1;align=center;glass=0;sketch=0;shadow=1;fillColor=#FAE5C7;strokeColor=#0F8B8D;fontColor=#143642;" vertex="1" parent="1">
          <mxGeometry x="-660" y="360" width="100" height="40" as="geometry" />
        </mxCell>
        <mxCell id="enesHElCpC1ox6ckIHe5-20" style="edgeStyle=orthogonalEdgeStyle;curved=0;rounded=1;sketch=0;orthogonalLoop=1;jettySize=auto;html=1;fontColor=#143642;strokeColor=#A8201A;fillColor=#FAE5C7;" edge="1" parent="1" source="enesHElCpC1ox6ckIHe5-8" target="enesHElCpC1ox6ckIHe5-19">
          <mxGeometry relative="1" as="geometry" />
        </mxCell>
        <mxCell id="enesHElCpC1ox6ckIHe5-8" value="&lt;font face=&quot;Times New Roman&quot;&gt;Subscription plan 1&lt;br&gt;订户计划&lt;br&gt;&lt;/font&gt;" style="rounded=1;arcSize=10;whiteSpace=wrap;html=1;align=center;glass=0;sketch=0;shadow=1;fillColor=#FAE5C7;strokeColor=#0F8B8D;fontColor=#143642;" vertex="1" parent="1">
          <mxGeometry x="-660" y="180" width="100" height="40" as="geometry" />
        </mxCell>
        <mxCell id="enesHElCpC1ox6ckIHe5-23" style="edgeStyle=orthogonalEdgeStyle;sketch=0;orthogonalLoop=1;jettySize=auto;html=1;entryX=0;entryY=0.5;entryDx=0;entryDy=0;fontColor=#143642;strokeColor=#A8201A;fillColor=#FAE5C7;rounded=1;" edge="1" parent="1" source="enesHElCpC1ox6ckIHe5-17" target="enesHElCpC1ox6ckIHe5-22">
          <mxGeometry relative="1" as="geometry" />
        </mxCell>
        <mxCell id="enesHElCpC1ox6ckIHe5-28" style="edgeStyle=orthogonalEdgeStyle;rounded=1;sketch=0;orthogonalLoop=1;jettySize=auto;html=1;exitX=1;exitY=0.5;exitDx=0;exitDy=0;fontColor=#143642;strokeColor=#A8201A;fillColor=#FAE5C7;" edge="1" parent="1" source="enesHElCpC1ox6ckIHe5-17" target="enesHElCpC1ox6ckIHe5-27">
          <mxGeometry relative="1" as="geometry" />
        </mxCell>
        <mxCell id="enesHElCpC1ox6ckIHe5-32" style="edgeStyle=orthogonalEdgeStyle;rounded=1;sketch=0;orthogonalLoop=1;jettySize=auto;html=1;exitX=1;exitY=0.5;exitDx=0;exitDy=0;entryX=0;entryY=0.5;entryDx=0;entryDy=0;fontColor=#143642;strokeColor=#A8201A;fillColor=#FAE5C7;" edge="1" parent="1" source="enesHElCpC1ox6ckIHe5-17" target="enesHElCpC1ox6ckIHe5-31">
          <mxGeometry relative="1" as="geometry" />
        </mxCell>
        <mxCell id="enesHElCpC1ox6ckIHe5-35" style="edgeStyle=orthogonalEdgeStyle;rounded=1;sketch=0;orthogonalLoop=1;jettySize=auto;html=1;exitX=1;exitY=0.5;exitDx=0;exitDy=0;entryX=0;entryY=0.5;entryDx=0;entryDy=0;fontColor=#143642;strokeColor=#A8201A;fillColor=#FAE5C7;" edge="1" parent="1" source="enesHElCpC1ox6ckIHe5-17" target="enesHElCpC1ox6ckIHe5-34">
          <mxGeometry relative="1" as="geometry" />
        </mxCell>
        <mxCell id="enesHElCpC1ox6ckIHe5-17" value="Offer Group&lt;br&gt;组合产品" style="rounded=1;arcSize=10;whiteSpace=wrap;html=1;align=center;sketch=0;fontColor=#143642;strokeColor=#0F8B8D;fillColor=#FAE5C7;shadow=1;" vertex="1" parent="1">
          <mxGeometry x="-490" y="270" width="100" height="40" as="geometry" />
        </mxCell>
        <mxCell id="enesHElCpC1ox6ckIHe5-19" value="Offer Group&lt;br&gt;" style="rounded=1;arcSize=10;whiteSpace=wrap;html=1;align=center;sketch=0;fontColor=#143642;strokeColor=#0F8B8D;fillColor=#FAE5C7;shadow=1;" vertex="1" parent="1">
          <mxGeometry x="-490" y="180" width="100" height="40" as="geometry" />
        </mxCell>
        <mxCell id="enesHElCpC1ox6ckIHe5-45" style="edgeStyle=orthogonalEdgeStyle;rounded=1;sketch=0;orthogonalLoop=1;jettySize=auto;html=1;exitX=1;exitY=0.5;exitDx=0;exitDy=0;fontColor=#143642;strokeColor=#A8201A;fillColor=#FAE5C7;" edge="1" parent="1" source="enesHElCpC1ox6ckIHe5-22" target="enesHElCpC1ox6ckIHe5-44">
          <mxGeometry relative="1" as="geometry" />
        </mxCell>
        <mxCell id="enesHElCpC1ox6ckIHe5-22" value="Deafault Price Plan Group" style="rounded=1;arcSize=10;whiteSpace=wrap;html=1;align=center;sketch=0;fontColor=#143642;strokeColor=#0F8B8D;fillColor=#FAE5C7;shadow=1;" vertex="1" parent="1">
          <mxGeometry x="-330" y="180" width="100" height="40" as="geometry" />
        </mxCell>
        <mxCell id="enesHElCpC1ox6ckIHe5-46" style="edgeStyle=orthogonalEdgeStyle;rounded=1;sketch=0;orthogonalLoop=1;jettySize=auto;html=1;exitX=1;exitY=0.5;exitDx=0;exitDy=0;fontColor=#143642;strokeColor=#A8201A;fillColor=#FAE5C7;" edge="1" parent="1" source="enesHElCpC1ox6ckIHe5-27" target="enesHElCpC1ox6ckIHe5-43">
          <mxGeometry relative="1" as="geometry" />
        </mxCell>
        <mxCell id="enesHElCpC1ox6ckIHe5-27" value="Price Plan Group" style="rounded=1;arcSize=10;whiteSpace=wrap;html=1;align=center;shadow=1;sketch=0;fontColor=#143642;strokeColor=#0F8B8D;fillColor=#FAE5C7;" vertex="1" parent="1">
          <mxGeometry x="-330" y="250" width="100" height="40" as="geometry" />
        </mxCell>
        <mxCell id="enesHElCpC1ox6ckIHe5-41" style="edgeStyle=orthogonalEdgeStyle;rounded=1;sketch=0;orthogonalLoop=1;jettySize=auto;html=1;exitX=1;exitY=0.5;exitDx=0;exitDy=0;entryX=0;entryY=0.5;entryDx=0;entryDy=0;fontColor=#143642;strokeColor=#A8201A;fillColor=#FAE5C7;" edge="1" parent="1" source="enesHElCpC1ox6ckIHe5-31" target="enesHElCpC1ox6ckIHe5-38">
          <mxGeometry relative="1" as="geometry" />
        </mxCell>
        <mxCell id="enesHElCpC1ox6ckIHe5-42" style="edgeStyle=orthogonalEdgeStyle;rounded=1;sketch=0;orthogonalLoop=1;jettySize=auto;html=1;exitX=1;exitY=0.5;exitDx=0;exitDy=0;fontColor=#143642;strokeColor=#A8201A;fillColor=#FAE5C7;" edge="1" parent="1" source="enesHElCpC1ox6ckIHe5-31" target="enesHElCpC1ox6ckIHe5-40">
          <mxGeometry relative="1" as="geometry" />
        </mxCell>
        <mxCell id="enesHElCpC1ox6ckIHe5-31" value="Related Product&lt;br&gt;Group" style="rounded=1;arcSize=10;whiteSpace=wrap;html=1;align=center;shadow=1;sketch=0;fontColor=#143642;strokeColor=#0F8B8D;fillColor=#FAE5C7;" vertex="1" parent="1">
          <mxGeometry x="-330" y="320" width="100" height="40" as="geometry" />
        </mxCell>
        <mxCell id="enesHElCpC1ox6ckIHe5-37" style="edgeStyle=orthogonalEdgeStyle;rounded=1;sketch=0;orthogonalLoop=1;jettySize=auto;html=1;exitX=1;exitY=0.5;exitDx=0;exitDy=0;entryX=0;entryY=0.5;entryDx=0;entryDy=0;fontColor=#143642;strokeColor=#A8201A;fillColor=#FAE5C7;" edge="1" parent="1" source="enesHElCpC1ox6ckIHe5-34" target="enesHElCpC1ox6ckIHe5-36">
          <mxGeometry relative="1" as="geometry" />
        </mxCell>
        <mxCell id="enesHElCpC1ox6ckIHe5-34" value="Goods Product Gruop" style="rounded=1;arcSize=10;whiteSpace=wrap;html=1;align=center;shadow=1;sketch=0;fontColor=#143642;strokeColor=#0F8B8D;fillColor=#FAE5C7;" vertex="1" parent="1">
          <mxGeometry x="-330" y="390" width="100" height="40" as="geometry" />
        </mxCell>
        <mxCell id="enesHElCpC1ox6ckIHe5-36" value="Goods" style="rounded=1;arcSize=10;whiteSpace=wrap;html=1;align=center;shadow=1;sketch=0;fontColor=#143642;strokeColor=#0F8B8D;fillColor=#FAE5C7;" vertex="1" parent="1">
          <mxGeometry x="-200" y="390" width="100" height="40" as="geometry" />
        </mxCell>
        <mxCell id="enesHElCpC1ox6ckIHe5-38" value="Related Product" style="rounded=1;arcSize=10;whiteSpace=wrap;html=1;align=center;shadow=1;sketch=0;fontColor=#143642;strokeColor=#0F8B8D;fillColor=#FAE5C7;" vertex="1" parent="1">
          <mxGeometry x="-140" y="310" width="100" height="20" as="geometry" />
        </mxCell>
        <mxCell id="enesHElCpC1ox6ckIHe5-40" value="Related Product" style="rounded=1;arcSize=10;whiteSpace=wrap;html=1;align=center;shadow=1;sketch=0;fontColor=#143642;strokeColor=#0F8B8D;fillColor=#FAE5C7;" vertex="1" parent="1">
          <mxGeometry x="-140" y="350" width="100" height="20" as="geometry" />
        </mxCell>
        <mxCell id="enesHElCpC1ox6ckIHe5-43" value="Price Plan" style="whiteSpace=wrap;html=1;align=center;rounded=1;shadow=1;sketch=0;fontColor=#143642;strokeColor=#0F8B8D;fillColor=#FAE5C7;" vertex="1" parent="1">
          <mxGeometry x="-160" y="250" width="100" height="40" as="geometry" />
        </mxCell>
        <mxCell id="enesHElCpC1ox6ckIHe5-44" value="Deafault Price" style="rounded=1;arcSize=10;whiteSpace=wrap;html=1;align=center;shadow=1;sketch=0;fontColor=#143642;strokeColor=#0F8B8D;fillColor=#FAE5C7;" vertex="1" parent="1">
          <mxGeometry x="-160" y="180" width="100" height="40" as="geometry" />
        </mxCell>
        <mxCell id="enesHElCpC1ox6ckIHe5-47" value="&lt;b&gt;Offer 模型图（没看懂）&lt;/b&gt;" style="text;html=1;strokeColor=none;fillColor=none;align=center;verticalAlign=middle;whiteSpace=wrap;rounded=0;shadow=1;sketch=0;fontColor=#143642;" vertex="1" parent="1">
          <mxGeometry x="-530" y="120" width="210" height="20" as="geometry" />
        </mxCell>
      </root>
    </mxGraphModel>
  </diagram>
</mxfile>
